<svg height="300" width="600" xmlns="http://www.w3.org/2000/svg">
	<g stroke-width="32" stroke-linecap="round">
		<g stroke="#F44336">
			<line x1="16" y1="134" x2="16" y2="134" />
			<line x1="56" y1="100" x2="56" y2="132" />
			<line x1="96" y1="72" x2="96" y2="128" />
			<line x1="136" y1="52" x2="136" y2="120" />
			<line x1="176" y1="36" x2="176" y2="110" />
			<line x1="216" y1="24" x2="216" y2="100" />
			<line x1="256" y1="16" x2="256" y2="110" />
			<line x1="296" y1="48" x2="296" y2="114" />
			<line x1="336" y1="16" x2="336" y2="110" />
			<line x1="376" y1="24" x2="376" y2="100" />
			<line x1="416" y1="36" x2="416" y2="110" />
			<line x1="456" y1="52" x2="456" y2="120" />
			<line x1="496" y1="72" x2="496" y2="128" />
			<line x1="536" y1="100" x2="536" y2="132" />
			<line x1="576" y1="134" x2="576" y2="134" />
		</g>
		<g stroke="#C62828">
			<line x1="16" y1="174" x2="16" y2="174" />
			<line x1="56" y1="172" x2="56" y2="204" />
			<line x1="96" y1="170" x2="96" y2="244" />
			<line x1="136" y1="166" x2="136" y2="264" />
			<line x1="176" y1="164" x2="176" y2="272" />
			<line x1="216" y1="174" x2="216" y2="280" />
			<line x1="256" y1="182" x2="256" y2="284" />
			<line x1="296" y1="188" x2="296" y2="284" />
			<line x1="336" y1="182" x2="336" y2="284" />
			<line x1="376" y1="174" x2="376" y2="280" />
			<line x1="416" y1="164" x2="416" y2="272" />
			<line x1="456" y1="166" x2="456" y2="264" />
			<line x1="496" y1="170" x2="496" y2="244" />
			<line x1="536" y1="172" x2="536" y2="204" />
			<line x1="576" y1="174" x2="576" y2="174" />
		</g>
	</g>
</svg>